<svg version="1.1" id="Layer_1" xmlns="http://www.w3.org/2000/svg" x="0" y="0" width="835" height="476" viewBox="0 0 835 476" xml:space="preserve"><style type="text/css">.st0{fill:#f2f2f2}.st1{fill:#ccc}.st2{fill:#b3b3b3}.st3{fill:none;stroke:#3f3f3f;stroke-width:2;stroke-miterlimit:10}</style><path class="st0" d="M14 18h379v77H14z"/><path class="st1" d="M53 72h57v12H53zM113 72h58v12h-58zM174 72h57v12h-57zM235 72h57v12h-57zM295 72h58v12h-58z"/><path class="st2" d="M198 32h37v11h-37z"/><path class="st1" d="M198 46h45v5h-45zM190 56.795A5.205 5.205 0 0 1 184.795 62h-22.59A5.205 5.205 0 0 1 157 56.795v-22.59A5.205 5.205 0 0 1 162.205 29h22.59A5.205 5.205 0 0 1 190 34.205v22.59z"/><path class="st0" d="M14 242h379v76H14z"/><path class="st1" d="M53 292h57v13H53zM113 292h58v13h-58zM174 292h57v13h-57zM235 292h57v13h-57zM295 292h58v13h-58z"/><path class="st2" d="M94 254h37v11H94z"/><path class="st1" d="M94 268h45v5H94zM86 278.795A5.205 5.205 0 0 1 80.795 284h-22.59A5.205 5.205 0 0 1 53 278.795v-22.59A5.205 5.205 0 0 1 58.205 251h22.59A5.205 5.205 0 0 1 86 256.205v22.59z"/><g><path class="st0" d="M14 338h379v52H14z"/><path class="st1" d="M174 358h57v12h-57zM235 358h57v12h-57zM295 358h58v12h-58z"/><path class="st2" d="M94 351h37v11H94z"/><path class="st1" d="M94 365h45v5H94zM86 375.795A5.205 5.205 0 0 1 80.795 381h-22.59A5.205 5.205 0 0 1 53 375.795v-22.59A5.205 5.205 0 0 1 58.205 348h22.59A5.205 5.205 0 0 1 86 353.205v22.59z"/></g><g><path class="st0" d="M438 18h379v77H438z"/><path class="st1" d="M477 77h57v12h-57zM537 77h58v12h-58zM598 77h57v12h-57zM659 77h57v12h-57zM719 77h58v12h-58z"/><path class="st2" d="M610 57h37v11h-37z"/><path class="st1" d="M606 69h45v5h-45zM646 49.795A5.205 5.205 0 0 1 640.795 55h-22.59A5.205 5.205 0 0 1 613 49.795v-22.59A5.205 5.205 0 0 1 618.205 22h22.59A5.205 5.205 0 0 1 646 27.205v22.59z"/></g><g><path class="st0" d="M438 242h379v76H438z"/><path class="st1" d="M477 292h57v13h-57zM537 292h58v13h-58zM598 292h57v13h-57zM659 292h57v13h-57zM719 292h58v13h-58z"/><path class="st2" d="M700 254h37v11h-37z"/><path class="st1" d="M692 268h45v5h-45zM777 278.795a5.205 5.205 0 0 1-5.205 5.205h-22.59a5.205 5.205 0 0 1-5.205-5.205v-22.59a5.205 5.205 0 0 1 5.205-5.205h22.59a5.205 5.205 0 0 1 5.205 5.205v22.59z"/></g><g><path class="st0" d="M438 338h379v52H438z"/><path class="st1" d="M477 358h57v12h-57zM537 358h57v12h-57zM598 358h58v12h-58z"/><path class="st2" d="M699 352h37v11h-37z"/><path class="st1" d="M691 365h45v5h-45zM776 375.795a5.205 5.205 0 0 1-5.205 5.205h-22.59a5.205 5.205 0 0 1-5.205-5.205v-22.59a5.205 5.205 0 0 1 5.205-5.205h22.59a5.205 5.205 0 0 1 5.205 5.205v22.59z"/></g><g><path class="st0" d="M438 114h379v50H438z"/><path class="st2" d="M701 126h37v10h-37z"/><path class="st1" d="M693 140h45v5h-45zM777 149.795a5.205 5.205 0 0 1-5.205 5.205h-22.59a5.205 5.205 0 0 1-5.205-5.205v-22.59a5.205 5.205 0 0 1 5.205-5.205h22.59a5.205 5.205 0 0 1 5.205 5.205v22.59z"/><g><path class="st3" d="M477 127h10M477 130h10M477 133h10"/></g></g><g><path class="st0" d="M14 180h379v43H14z"/><path class="st1" d="M174 195h57v12h-57zM235 195h57v12h-57zM295 195h58v12h-58zM93 204.434c0 4.051-2.239 7.566-5 7.566H58c-2.761 0-5-3.515-5-7.566v-5.868c0-4.051 2.239-7.566 5-7.566h30c2.761 0 5 3.515 5 7.566v5.868z"/></g><g><path class="st0" d="M438 180h379v43H438z"/><path class="st1" d="M477 195h57v12h-57zM537 195h58v12h-58zM598 195h57v12h-57zM777 204.434c0 4.051-2.239 7.566-5 7.566h-30c-2.761 0-5-3.515-5-7.566v-5.868c0-4.051 2.239-7.566 5-7.566h30c2.761 0 5 3.515 5 7.566v5.868z"/></g><g><path class="st0" d="M16 411h379v43H16z"/><path class="st1" d="M105 426h57v12h-57zM166 426h57v12h-57zM226 426h58v12h-58zM95 435.434c0 4.051-2.239 7.566-5 7.566H60c-2.761 0-5-3.515-5-7.566v-5.868c0-4.051 2.239-7.566 5-7.566h30c2.761 0 5 3.515 5 7.566v5.868z"/></g><g><path class="st0" d="M440 411h379v43H440z"/><path class="st1" d="M555 426h57v12h-57zM615 426h58v12h-58zM676 426h57v12h-57zM779 435.434c0 4.051-2.239 7.566-5 7.566h-30c-2.761 0-5-3.515-5-7.566v-5.868c0-4.051 2.239-7.566 5-7.566h30c2.761 0 5 3.515 5 7.566v5.868z"/></g></svg>