<?xml version="1.0" encoding="utf-8"?>
<!-- Generator: Adobe Illustrator 17.0.0, SVG Export Plug-In . SVG Version: 6.00 Build 0)  -->
<!DOCTYPE svg PUBLIC "-//W3C//DTD SVG 1.1//EN" "http://www.w3.org/Graphics/SVG/1.1/DTD/svg11.dtd">
<svg version="1.1" id="Layer_1" xmlns="http://www.w3.org/2000/svg" xmlns:xlink="http://www.w3.org/1999/xlink" x="0px" y="0px"
	 width="835px" height="476px" viewBox="0 0 835 476" style="enable-background:new 0 0 835 476;" xml:space="preserve">
<style type="text/css">
	.st0{fill:#F2F2F2;}
	.st1{fill:#CCCCCC;}
	.st2{fill:#B3B3B3;}
	.st3{fill:none;stroke:#3F3F3F;stroke-width:2;stroke-miterlimit:10;}
</style>
<g>
	<rect x="14" y="18" class="st0" width="379" height="77"/>
	<rect x="53" y="72" class="st1" width="57" height="12"/>
	<rect x="113" y="72" class="st1" width="58" height="12"/>
	<rect x="174" y="72" class="st1" width="57" height="12"/>
	<rect x="235" y="72" class="st1" width="57" height="12"/>
	<rect x="295" y="72" class="st1" width="58" height="12"/>
	<g>
		<rect x="198" y="32" class="st2" width="37" height="11"/>
		<rect x="198" y="46" class="st1" width="45" height="5"/>
		<path class="st1" d="M190,56.795c0,2.875-2.33,5.205-5.205,5.205h-22.59C159.33,62,157,59.67,157,56.795v-22.59
			c0-2.875,2.33-5.205,5.205-5.205h22.59c2.875,0,5.205,2.33,5.205,5.205V56.795z"/>
	</g>
</g>
<g>
	<rect x="14" y="242" class="st0" width="379" height="76"/>
	<rect x="53" y="292" class="st1" width="57" height="13"/>
	<rect x="113" y="292" class="st1" width="58" height="13"/>
	<rect x="174" y="292" class="st1" width="57" height="13"/>
	<rect x="235" y="292" class="st1" width="57" height="13"/>
	<rect x="295" y="292" class="st1" width="58" height="13"/>
	<g>
		<rect x="94" y="254" class="st2" width="37" height="11"/>
		<rect x="94" y="268" class="st1" width="45" height="5"/>
		<path class="st1" d="M86,278.795c0,2.875-2.33,5.205-5.205,5.205h-22.59C55.33,284,53,281.67,53,278.795v-22.59
			c0-2.875,2.33-5.205,5.205-5.205h22.59c2.875,0,5.205,2.33,5.205,5.205V278.795z"/>
	</g>
</g>
<g>
	<rect x="14" y="338" class="st0" width="379" height="52"/>
	<rect x="174" y="358" class="st1" width="57" height="12"/>
	<rect x="235" y="358" class="st1" width="57" height="12"/>
	<rect x="295" y="358" class="st1" width="58" height="12"/>
	<g>
		<rect x="94" y="351" class="st2" width="37" height="11"/>
		<rect x="94" y="365" class="st1" width="45" height="5"/>
		<path class="st1" d="M86,375.795c0,2.875-2.33,5.205-5.205,5.205h-22.59C55.33,381,53,378.67,53,375.795v-22.59
			c0-2.875,2.33-5.205,5.205-5.205h22.59c2.875,0,5.205,2.33,5.205,5.205V375.795z"/>
	</g>
</g>
<g>
	<rect x="438" y="18" class="st0" width="379" height="77"/>
	<rect x="477" y="77" class="st1" width="57" height="12"/>
	<rect x="537" y="77" class="st1" width="58" height="12"/>
	<rect x="598" y="77" class="st1" width="57" height="12"/>
	<rect x="659" y="77" class="st1" width="57" height="12"/>
	<rect x="719" y="77" class="st1" width="58" height="12"/>
	<g>
		<rect x="610" y="57" class="st2" width="37" height="11"/>
		<rect x="606" y="69" class="st1" width="45" height="5"/>
		<path class="st1" d="M646,49.795c0,2.875-2.33,5.205-5.205,5.205h-22.59C615.33,55,613,52.67,613,49.795v-22.59
			c0-2.875,2.33-5.205,5.205-5.205h22.59c2.875,0,5.205,2.33,5.205,5.205V49.795z"/>
	</g>
</g>
<g>
	<rect x="438" y="242" class="st0" width="379" height="76"/>
	<rect x="477" y="292" class="st1" width="57" height="13"/>
	<rect x="537" y="292" class="st1" width="58" height="13"/>
	<rect x="598" y="292" class="st1" width="57" height="13"/>
	<rect x="659" y="292" class="st1" width="57" height="13"/>
	<rect x="719" y="292" class="st1" width="58" height="13"/>
	<g>
		<rect x="700" y="254" class="st2" width="37" height="11"/>
		<rect x="692" y="268" class="st1" width="45" height="5"/>
		<path class="st1" d="M777,278.795c0,2.875-2.33,5.205-5.205,5.205h-22.59c-2.875,0-5.205-2.33-5.205-5.205v-22.59
			c0-2.875,2.33-5.205,5.205-5.205h22.59c2.875,0,5.205,2.33,5.205,5.205V278.795z"/>
	</g>
</g>
<g>
	<rect x="438" y="338" class="st0" width="379" height="52"/>
	<rect x="477" y="358" class="st1" width="57" height="12"/>
	<rect x="537" y="358" class="st1" width="57" height="12"/>
	<rect x="598" y="358" class="st1" width="58" height="12"/>
	<g>
		<rect x="699" y="352" class="st2" width="37" height="11"/>
		<rect x="691" y="365" class="st1" width="45" height="5"/>
		<path class="st1" d="M776,375.795c0,2.875-2.33,5.205-5.205,5.205h-22.59c-2.875,0-5.205-2.33-5.205-5.205v-22.59
			c0-2.875,2.33-5.205,5.205-5.205h22.59c2.875,0,5.205,2.33,5.205,5.205V375.795z"/>
	</g>
</g>
<g>
	<g>
		<rect x="438" y="114" class="st0" width="379" height="50"/>
		<g>
			<rect x="701" y="126" class="st2" width="37" height="10"/>
			<rect x="693" y="140" class="st1" width="45" height="5"/>
			<path class="st1" d="M777,149.795c0,2.875-2.33,5.205-5.205,5.205h-22.59c-2.875,0-5.205-2.33-5.205-5.205v-22.59
				c0-2.875,2.33-5.205,5.205-5.205h22.59c2.875,0,5.205,2.33,5.205,5.205V149.795z"/>
		</g>
	</g>
	<g>
		<line class="st3" x1="477" y1="127" x2="487" y2="127"/>
		<line class="st3" x1="477" y1="130" x2="487" y2="130"/>
		<line class="st3" x1="477" y1="133" x2="487" y2="133"/>
	</g>
</g>
<g>
	<g>
		<rect x="14" y="180" class="st0" width="379" height="43"/>
		<rect x="174" y="195" class="st1" width="57" height="12"/>
		<rect x="235" y="195" class="st1" width="57" height="12"/>
		<rect x="295" y="195" class="st1" width="58" height="12"/>
	</g>
	<path class="st1" d="M93,204.434c0,4.051-2.239,7.566-5,7.566H58c-2.761,0-5-3.515-5-7.566v-5.868c0-4.051,2.239-7.566,5-7.566h30
		c2.761,0,5,3.515,5,7.566V204.434z"/>
</g>
<g>
	<g>
		<rect x="438" y="180" class="st0" width="379" height="43"/>
		<rect x="477" y="195" class="st1" width="57" height="12"/>
		<rect x="537" y="195" class="st1" width="58" height="12"/>
		<rect x="598" y="195" class="st1" width="57" height="12"/>
	</g>
	<path class="st1" d="M777,204.434c0,4.051-2.239,7.566-5,7.566h-30c-2.761,0-5-3.515-5-7.566v-5.868c0-4.051,2.239-7.566,5-7.566
		h30c2.761,0,5,3.515,5,7.566V204.434z"/>
</g>
<g>
	<g>
		<rect x="16" y="411" class="st0" width="379" height="43"/>
		<rect x="105" y="426" class="st1" width="57" height="12"/>
		<rect x="166" y="426" class="st1" width="57" height="12"/>
		<rect x="226" y="426" class="st1" width="58" height="12"/>
	</g>
	<path class="st1" d="M95,435.434c0,4.051-2.239,7.566-5,7.566H60c-2.761,0-5-3.515-5-7.566v-5.868c0-4.051,2.239-7.566,5-7.566h30
		c2.761,0,5,3.515,5,7.566V435.434z"/>
</g>
<g>
	<g>
		<rect x="440" y="411" class="st0" width="379" height="43"/>
		<rect x="555" y="426" class="st1" width="57" height="12"/>
		<rect x="615" y="426" class="st1" width="58" height="12"/>
		<rect x="676" y="426" class="st1" width="57" height="12"/>
	</g>
	<path class="st1" d="M779,435.434c0,4.051-2.239,7.566-5,7.566h-30c-2.761,0-5-3.515-5-7.566v-5.868c0-4.051,2.239-7.566,5-7.566
		h30c2.761,0,5,3.515,5,7.566V435.434z"/>
</g>
</svg>
